<?xml version="1.0" encoding="utf-8"?>
<!-- Generator: Adobe Illustrator 22.1.0, SVG Export Plug-In . SVG Version: 6.00 Build 0)  -->
<svg version="1.1" id="Layer_1" xmlns="http://www.w3.org/2000/svg" xmlns:xlink="http://www.w3.org/1999/xlink" x="0px" y="0px"
	 viewBox="0 0 142.1 54.5" style="enable-background:new 0 0 142.1 54.5;" xml:space="preserve">
<style type="text/css">
	.st0{fill:none;stroke:#00539B;stroke-width:0.75;stroke-miterlimit:10;}
	.st1{fill:#00539B;}
	.st2{fill:#6D6E71;}
</style>
<path class="st0" d="M0.3,15.6"/>
<path class="st0" d="M36.1,36.1"/>
<path class="st0" d="M7.7,47.9"/>
<g>
	<g>
		<path class="st1" d="M126.5,11.1h-10.6v25.8h-12.4V0.4h35.5v36.5h-12.4V11.1z"/>
	</g>
	<g>
		<path class="st1" d="M90,11.1H79.4v25.8H66.9V0.4h35.5v36.5H90V11.1z"/>
	</g>
	<g>
		<path class="st1" d="M54,17h-0.1L43.2,36.9H29.8V0.4h11.6v20h0.1l10.8-20h13.2v36.5H54V17z"/>
	</g>
	<path class="st1" d="M13.6,36.9H0.2V0h28.3v10.8H13.6V36.9z"/>
	<g>
		<line class="st0" x1="115.8" y1="38.9" x2="0" y2="38.9"/>
		<line class="st0" x1="115.8" y1="41.3" x2="0" y2="41.3"/>
		<line class="st0" x1="115.8" y1="43.7" x2="0" y2="43.7"/>
	</g>
</g>
<g>
	<path class="st2" d="M2.7,51.5l1.1,0.1c0,0.6-0.2,1-0.5,1.4c-0.3,0.4-0.7,0.5-1.3,0.5c-0.6,0-1.1-0.2-1.5-0.7
		c-0.3-0.5-0.5-1.1-0.5-2c0-0.8,0.2-1.5,0.5-2c0.3-0.5,0.8-0.7,1.5-0.7c1.1,0,1.7,0.7,1.8,2l-1,0.1c0-0.8-0.3-1.2-0.7-1.2
		c-0.2,0-0.4,0.1-0.6,0.4c-0.1,0.2-0.2,0.7-0.2,1.4c0,0.6,0.1,1.1,0.2,1.3c0.1,0.2,0.3,0.4,0.6,0.4C2.4,52.6,2.6,52.2,2.7,51.5z"/>
	<path class="st2" d="M8.2,50.8c0,1.8-0.6,2.7-1.9,2.7c-0.6,0-1.1-0.2-1.4-0.7c-0.3-0.5-0.5-1.1-0.5-2c0-1.8,0.6-2.7,1.9-2.7
		c0.6,0,1.1,0.2,1.4,0.7C8,49.3,8.2,49.9,8.2,50.8z M7,50.8c0-0.7-0.1-1.2-0.2-1.4c-0.1-0.2-0.3-0.3-0.5-0.3c-0.2,0-0.4,0.1-0.5,0.3
		c-0.1,0.2-0.2,0.7-0.2,1.4c0,0.7,0.1,1.1,0.2,1.4c0.1,0.2,0.3,0.4,0.5,0.4c0.2,0,0.4-0.1,0.5-0.3C6.9,52,7,51.5,7,50.8z"/>
	<path class="st2" d="M10.9,51.3h-0.6v2.1H9.1v-5.2h1.1v2.1h0.6c0.1-1.5,0.8-2.2,1.9-2.2c0.6,0,1.1,0.2,1.4,0.7
		c0.3,0.5,0.5,1.1,0.5,2c0,1.8-0.6,2.7-1.9,2.7C11.6,53.5,11,52.8,10.9,51.3z M13.4,50.8c0-0.7-0.1-1.2-0.2-1.4
		c-0.1-0.2-0.3-0.3-0.5-0.3c-0.2,0-0.4,0.1-0.5,0.3c-0.1,0.2-0.2,0.7-0.2,1.4c0,0.7,0.1,1.2,0.2,1.4c0.1,0.2,0.3,0.3,0.5,0.3
		c0.2,0,0.4-0.1,0.5-0.3C13.4,52,13.4,51.5,13.4,50.8z"/>
	<path class="st2" d="M16.3,49.8l-1-0.2c0.1-0.6,0.4-1,0.7-1.2c0.3-0.2,0.7-0.3,1.1-0.3c0.5,0,0.8,0.1,1.1,0.4
		c0.3,0.2,0.4,0.6,0.4,1c0,0.5-0.3,0.9-0.8,1.1c0.6,0.2,0.9,0.6,0.9,1.2c0,0.5-0.2,0.9-0.5,1.1c-0.3,0.3-0.8,0.4-1.4,0.4
		c-0.6,0-1-0.2-1.2-0.5c-0.2-0.3-0.4-0.7-0.5-1.2l1-0.2c0.1,0.4,0.2,0.7,0.3,0.8c0.1,0.1,0.3,0.2,0.4,0.2c0.2,0,0.4-0.1,0.5-0.2
		c0.1-0.1,0.2-0.3,0.2-0.5c0-0.5-0.3-0.7-0.8-0.7h-0.2v-0.8h0.2c0.2,0,0.3,0,0.4,0c0.1,0,0.2-0.1,0.2-0.2c0.1-0.1,0.1-0.2,0.1-0.4
		c0-0.4-0.2-0.6-0.5-0.6c-0.1,0-0.2,0-0.4,0.1C16.5,49.2,16.4,49.4,16.3,49.8z"/>
	<path class="st2" d="M21.1,48.2h3.5v5.2h-1.1v-4.2h-1.2v4.2h-1.1V48.2z"/>
	<path class="st2" d="M25.7,48.2h1.5c0.5,0,0.8,0,1.1,0.1c0.3,0.1,0.5,0.2,0.6,0.5c0.2,0.3,0.3,0.6,0.3,1c0,0.4-0.1,0.7-0.2,0.9
		c-0.1,0.2-0.3,0.4-0.6,0.5c-0.2,0.1-0.6,0.2-1.1,0.2h-0.4v1.9h-1.1V48.2z M26.9,49.1v1.5h0.4c0.3,0,0.5-0.1,0.6-0.2
		c0.1-0.1,0.1-0.3,0.1-0.6c0-0.2,0-0.4-0.1-0.5c-0.1-0.1-0.2-0.2-0.2-0.2c-0.1,0-0.2-0.1-0.4-0.1H26.9z"/>
	<path class="st2" d="M29.8,48.2H33v0.9h-2v1.2h1.6v0.9H31v1.3h2v0.9h-3.2V48.2z"/>
	<path class="st2" d="M33.4,52.5l1.1-4.2H36l1,4.2h0.3v2h-0.8l-0.1-1.1H34l-0.1,1.1H33v-2H33.4z M34.4,52.5h1.4l-0.6-3.1h-0.1
		L34.4,52.5z"/>
	<path class="st2" d="M37.8,48.2h3.5v5.2h-1.1v-4.2h-1.2v4.2h-1.1V48.2z"/>
	<path class="st2" d="M42.4,48.2h1.5c0.5,0,0.8,0,1.1,0.1c0.3,0.1,0.5,0.2,0.6,0.5c0.2,0.3,0.3,0.6,0.3,1c0,0.4-0.1,0.7-0.2,0.9
		c-0.1,0.2-0.3,0.4-0.6,0.5c-0.2,0.1-0.6,0.2-1.1,0.2h-0.4v1.9h-1.1V48.2z M43.5,49.1v1.5h0.4c0.3,0,0.5-0.1,0.6-0.2
		c0.1-0.1,0.1-0.3,0.1-0.6c0-0.2,0-0.4-0.1-0.5c-0.1-0.1-0.2-0.2-0.2-0.2c-0.1,0-0.2-0.1-0.4-0.1H43.5z"/>
	<path class="st2" d="M47.6,52.9v0.5h-1.1v-5.2h1.1v2.9l0.2-0.3l1.2-2v-0.6h1.1v5.2H49v-2.7l0-0.2l-0.2,0.3L47.6,52.9z"/>
	<path class="st2" d="M54.5,53.4h-1.1v-2.1h-0.6l-0.7,2.1h-1.2l1-2.3c-0.5-0.3-0.7-0.7-0.7-1.4c0-0.3,0-0.5,0.1-0.7
		c0.1-0.2,0.2-0.4,0.4-0.5c0.2-0.1,0.3-0.2,0.5-0.2c0.2,0,0.4,0,0.7,0h1.6V53.4z M52.9,49.1c-0.2,0-0.3,0-0.4,0.1
		c-0.1,0-0.2,0.1-0.2,0.2c-0.1,0.1-0.1,0.3-0.1,0.4c0,0.5,0.2,0.8,0.7,0.8h0.5v-1.5H52.9z"/>
	<path class="st2" d="M55,48.2h3.2v1h-1.1v4.2H56v-4.2h-1V48.2z"/>
	<path class="st2" d="M59.9,52.9v0.5h-1.1v-5.2h1.1v2.9l0.2-0.3l1.2-2v-0.6h1.1v5.2h-1.1v-2.7l0-0.2L61,50.9L59.9,52.9z"/>
	<path class="st2" d="M64.6,52.9v0.5h-1.1v-5.2h1.1v2.9l0.2-0.3l1.2-2v-0.6H67v5.2h-1.1v-2.7l0-0.2l-0.2,0.3L64.6,52.9z M64,46.8
		h0.6c0.1,0.3,0.3,0.4,0.6,0.4c0.3,0,0.5-0.1,0.6-0.4h0.6c-0.2,0.6-0.6,1-1.3,1C64.6,47.8,64.2,47.5,64,46.8z"/>
	<path class="st2" d="M69.7,48.2h3.5v5.2h-1.1v-4.2h-1.2v4.2h-1.1V48.2z"/>
	<path class="st2" d="M74.3,48.2h3.2v0.9h-2v1.2H77v0.9h-1.6v1.3h2v0.9h-3.2V48.2z"/>
	<path class="st2" d="M80.3,53.4v-1.9c-0.3,0.2-0.6,0.3-0.9,0.3c-0.3,0-0.5-0.1-0.7-0.2c-0.2-0.1-0.4-0.3-0.5-0.6
		c-0.1-0.2-0.2-0.6-0.2-1v-1.8h1.1v1.9c0,0.3,0,0.5,0.1,0.6c0.1,0.1,0.2,0.2,0.3,0.2c0.2,0,0.5-0.1,0.7-0.4v-2.3h1.1v5.2H80.3z"/>
	<path class="st2" d="M83.4,48.2h1.1l1.5,5.2h-1.2l-0.3-1.1h-1.5l-0.3,1.1h-1L83.4,48.2z M84.4,51.4l-0.5-2.1l-0.5,2.1H84.4z"/>
	<path class="st2" d="M85.8,48.2h3.2v1H88v4.2h-1.1v-4.2h-1V48.2z"/>
	<path class="st2" d="M89.6,48.2h1.1v2.1H92v-2.1h1.1v5.2H92v-2.1h-1.2v2.1h-1.1V48.2z"/>
	<path class="st2" d="M97.8,50.8c0,1.8-0.6,2.7-1.9,2.7c-0.6,0-1.1-0.2-1.4-0.7c-0.3-0.5-0.5-1.1-0.5-2c0-1.8,0.6-2.7,1.9-2.7
		c0.6,0,1.1,0.2,1.4,0.7C97.6,49.3,97.8,49.9,97.8,50.8z M96.6,50.8c0-0.7-0.1-1.2-0.2-1.4c-0.1-0.2-0.3-0.3-0.5-0.3
		c-0.2,0-0.4,0.1-0.5,0.3c-0.1,0.2-0.2,0.7-0.2,1.4c0,0.7,0.1,1.1,0.2,1.4c0.1,0.2,0.3,0.4,0.5,0.4c0.2,0,0.4-0.1,0.5-0.3
		C96.5,52,96.6,51.5,96.6,50.8z"/>
	<path class="st2" d="M99.8,52.9v0.5h-1.1v-5.2h1.1v2.9l0.2-0.3l1.2-2v-0.6h1.1v5.2h-1.1v-2.7l0-0.2l-0.2,0.3L99.8,52.9z M99.3,46.8
		h0.6c0.1,0.3,0.3,0.4,0.6,0.4c0.3,0,0.5-0.1,0.6-0.4h0.6c-0.2,0.6-0.6,1-1.3,1C99.9,47.8,99.5,47.5,99.3,46.8z"/>
	<path class="st2" d="M106.1,52.9v0.5H105v-5.2h1.1v2.9l0.2-0.3l1.2-2v-0.6h1.1v5.2h-1.1v-2.7l0-0.2l-0.2,0.3L106.1,52.9z"/>
	<path class="st2" d="M109.7,48.2h1.1v2.1h1.2v-2.1h1.1v5.2H112v-2.1h-1.2v2.1h-1.1V48.2z"/>
	<path class="st2" d="M114,52.5l1.1-4.2h1.5l1,4.2h0.3v2h-0.8l-0.1-1.1h-2.4l-0.1,1.1h-0.8v-2H114z M115,52.5h1.4l-0.6-3.1h-0.1
		L115,52.5z"/>
	<path class="st2" d="M119.3,51.9l-1.6-3.6h1.2l0.9,2.3l0.8-2.3h1.1l-1.4,3.9c-0.2,0.5-0.4,0.9-0.6,1c-0.2,0.2-0.5,0.3-0.9,0.3h-0.5
		v-1h0.5c0.1,0,0.2,0,0.2-0.1C119.2,52.3,119.2,52.1,119.3,51.9z"/>
	<path class="st2" d="M124.6,51.5l1.1,0.1c0,0.6-0.2,1-0.5,1.4c-0.3,0.4-0.7,0.5-1.3,0.5c-0.6,0-1.1-0.2-1.5-0.7
		c-0.3-0.5-0.5-1.1-0.5-2c0-0.8,0.2-1.5,0.5-2c0.3-0.5,0.8-0.7,1.5-0.7c1.1,0,1.7,0.7,1.8,2l-1,0.1c0-0.8-0.3-1.2-0.7-1.2
		c-0.2,0-0.4,0.1-0.6,0.4c-0.1,0.2-0.2,0.7-0.2,1.4c0,0.6,0.1,1.1,0.2,1.3c0.1,0.2,0.3,0.4,0.6,0.4
		C124.3,52.6,124.5,52.2,124.6,51.5z"/>
	<path class="st2" d="M126,48.2h3.2v1h-1.1v4.2H127v-4.2h-1V48.2z"/>
	<path class="st2" d="M129.7,48.2h1.5c0.5,0,0.8,0,1.1,0.1c0.3,0.1,0.5,0.2,0.6,0.5c0.2,0.3,0.3,0.6,0.3,1c0,0.4-0.1,0.7-0.2,0.9
		c-0.1,0.2-0.3,0.4-0.6,0.5c-0.2,0.1-0.6,0.2-1.1,0.2h-0.4v1.9h-1.1V48.2z M130.8,49.1v1.5h0.4c0.3,0,0.5-0.1,0.6-0.2
		c0.1-0.1,0.1-0.3,0.1-0.6c0-0.2,0-0.4-0.1-0.5c-0.1-0.1-0.2-0.2-0.2-0.2c-0.1,0-0.2-0.1-0.4-0.1H130.8z"/>
	<path class="st2" d="M134.9,52.9v0.5h-1.1v-5.2h1.1v2.9l0.2-0.3l1.2-2v-0.6h1.1v5.2h-1.1v-2.7l0-0.2l-0.2,0.3L134.9,52.9z"/>
	<path class="st2" d="M139.6,52.9v0.5h-1.1v-5.2h1.1v2.9l0.2-0.3l1.2-2v-0.6h1.1v5.2H141v-2.7l0-0.2l-0.2,0.3L139.6,52.9z"/>
</g>
<g>
	<path class="st1" d="M122.6,39.2v0.6c-0.1,0-0.1,0-0.2,0c-0.2,0-0.4,0.1-0.4,0.4c0.2,0.2,0.3,0.5,0.3,0.8c0,0.3-0.1,0.6-0.4,0.9
		c-0.2,0.2-0.6,0.4-1,0.4c-0.2,0-0.3,0-0.5-0.1c-0.2,0.1-0.3,0.2-0.3,0.3c0,0.1,0.1,0.2,0.2,0.3c0.1,0,0.4,0.1,0.8,0.1
		c0.4,0,0.7,0.1,0.9,0.1c0.2,0.1,0.3,0.2,0.5,0.3c0.1,0.2,0.2,0.4,0.2,0.6c0,0.4-0.2,0.7-0.5,0.9c-0.3,0.2-0.7,0.3-1.3,0.3
		c-0.5,0-0.9-0.1-1.2-0.3c-0.2-0.2-0.4-0.4-0.4-0.7c0-0.4,0.2-0.6,0.6-0.7c-0.3-0.2-0.4-0.4-0.4-0.6c0-0.3,0.2-0.6,0.6-0.8
		c-0.3-0.2-0.5-0.5-0.5-1c0-0.4,0.1-0.7,0.4-0.9c0.3-0.2,0.6-0.3,1-0.3c0.3,0,0.5,0.1,0.7,0.2c0-0.3,0.1-0.5,0.2-0.6
		c0.1-0.1,0.3-0.2,0.5-0.2C122.4,39.2,122.5,39.2,122.6,39.2z M120.4,43.5c-0.2,0.1-0.3,0.3-0.3,0.5c0,0.2,0.1,0.3,0.2,0.4
		c0.1,0.1,0.4,0.1,0.7,0.1c0.6,0,0.9-0.2,0.9-0.5c0-0.2-0.1-0.3-0.2-0.4c-0.1-0.1-0.3-0.1-0.7-0.1C120.8,43.5,120.6,43.5,120.4,43.5
		z M121.5,41c0-0.5-0.2-0.8-0.5-0.8c-0.4,0-0.6,0.3-0.6,0.8c0,0.5,0.2,0.7,0.5,0.7C121.3,41.8,121.5,41.5,121.5,41z"/>
	<path class="st1" d="M123.9,39.3h-0.8v-0.8h0.8V39.3z M123.1,39.8h0.8v3.8h-0.8V39.8z"/>
	<path class="st1" d="M124.8,39.8h0.7v0.6c0.2-0.5,0.5-0.7,0.9-0.7c0.4,0,0.7,0.2,0.9,0.5c0.2,0.3,0.4,0.8,0.4,1.4
		c0,0.6-0.1,1-0.3,1.4c-0.2,0.4-0.6,0.6-1,0.6c-0.4,0-0.6-0.2-0.9-0.5V45h-0.8V39.8z M125.6,42.1c0,0.2,0,0.4,0.1,0.6
		c0,0.1,0.1,0.3,0.2,0.4c0.1,0.1,0.2,0.1,0.4,0.1c0.4,0,0.7-0.5,0.7-1.4c0-0.9-0.2-1.4-0.7-1.4c-0.2,0-0.4,0.1-0.5,0.3
		c-0.1,0.2-0.2,0.5-0.2,0.8V42.1z"/>
	<path class="st1" d="M128.5,39.8h0.7v0.6c0.2-0.5,0.5-0.7,0.9-0.7c0.4,0,0.7,0.2,0.9,0.5c0.2,0.3,0.4,0.8,0.4,1.4
		c0,0.6-0.1,1-0.3,1.4c-0.2,0.4-0.6,0.6-1,0.6c-0.4,0-0.6-0.2-0.9-0.5V45h-0.8V39.8z M129.3,42.1c0,0.2,0,0.4,0.1,0.6
		c0,0.1,0.1,0.3,0.2,0.4c0.1,0.1,0.2,0.1,0.4,0.1c0.4,0,0.7-0.5,0.7-1.4c0-0.9-0.2-1.4-0.7-1.4c-0.2,0-0.4,0.1-0.5,0.3
		s-0.2,0.5-0.2,0.8V42.1z"/>
	<path class="st1" d="M132.3,42.7h0.9v1h-0.9V42.7z"/>
	<path class="st1" d="M134.1,39.8h0.7v0.9c0.2-0.6,0.5-0.9,1-0.9c0,0,0.1,0,0.1,0v0.8c-0.1,0-0.1,0-0.2,0c-0.6,0-0.9,0.4-0.9,1.1v2
		h-0.8V39.8z"/>
	<path class="st1" d="M136.2,39.8h0.8v2.4c0,0.3,0,0.6,0.1,0.7c0.1,0.1,0.2,0.2,0.4,0.2c0.2,0,0.4-0.1,0.5-0.3
		c0.1-0.2,0.1-0.6,0.1-1.1v-1.8h0.8v3.8h-0.7v-0.6c-0.2,0.4-0.5,0.7-1,0.7c-0.2,0-0.4,0-0.6-0.1c-0.1-0.1-0.3-0.2-0.3-0.4
		c-0.1-0.2-0.1-0.5-0.1-0.9V39.8z"/>
</g>
</svg>
